<svg xmlns="http://www.w3.org/2000/svg" width="512" height="512" viewBox="0 0 512 512">
  <defs>
    <linearGradient id="bg" x1="0%" y1="0%" x2="100%" y2="100%">
      <stop offset="0%" stop-color="#D63A34"/>
      <stop offset="100%" stop-color="#B92E29"/>
    </linearGradient>
  </defs>
  <!-- Background -->
  <rect width="512" height="512" rx="96" fill="url(#bg)"/>
  <!-- Fire icon simplified -->
  <path d="M256 80c0 0 80 100 80 180c0 44-36 80-80 80s-80-36-80-80C176 180 256 80 256 80z" fill="#D6A645" opacity="0.3"/>
  <path d="M256 140c0 0 50 70 50 120c0 28-22 50-50 50s-50-22-50-50C206 210 256 140 256 140z" fill="#D6A645" opacity="0.5"/>
  <!-- J letter -->
  <text x="256" y="360" text-anchor="middle" font-family="Inter,system-ui,-apple-system,sans-serif" font-size="200" font-weight="900" fill="#FFFFFF" letter-spacing="-0.02em">J</text>
  <!-- Subtitle -->
  <text x="256" y="420" text-anchor="middle" font-family="Inter,system-ui,-apple-system,sans-serif" font-size="32" font-weight="600" fill="rgba(255,255,255,0.7)" letter-spacing="0.25em">JONEL</text>
</svg>
